<?xml version="1.0" encoding="utf-8"?>
<!-- Generator: Adobe Illustrator 19.2.1, SVG Export Plug-In . SVG Version: 6.00 Build 0)  -->
<svg version="1.1" id="layer" xmlns="http://www.w3.org/2000/svg" xmlns:xlink="http://www.w3.org/1999/xlink" x="0px" y="0px"
	 viewBox="0 0 652 652" style="enable-background:new 0 0 652 652;" xml:space="preserve">
<style type="text/css">
	.st0{fill:#14BF96;}
	.st1{fill:#FFFFFF;}
</style>
<path d="M134.3,295.3c0.1-1,0.9-1.7,1.9-1.7h6.9c1,0,1.9,0.8,1.9,1.9v21.3l19.8-22.3c0.3-0.5,0.9-0.8,1.5-0.8h7.9
	c0.9,0,1.7,0.7,1.7,1.6c0,0.5-0.2,0.9-0.5,1.2l-20.6,23.1l22,26.4c0.6,0.8,0.4,1.9-0.4,2.4c-0.3,0.2-0.7,0.3-1,0.3h-8.6
	c-0.5,0-1.1-0.2-1.4-0.5l-20.6-25.4v24c0,1-0.8,1.9-1.9,1.9h-6.9c-1,0-1.9-0.8-1.9-1.9c0,0,0,0,0,0L134.3,295.3z"/>
<path d="M182.7,295.1c0.1-0.9,0.8-1.6,1.7-1.7h6.4c0.9,0,1.7,0.8,1.7,1.7v19.3c2.6-2.1,5.9-3.2,9.3-3.1c11.6,0,14.7,8,14.7,17.1
	v18.2c0,1-0.8,1.7-1.7,1.7h-6.4c-1,0-1.7-0.8-1.7-1.7v-18.3c0-5-2.3-8.1-6.6-8.1c-3.8-0.1-7,2.7-7.5,6.4v20.1c0,1-0.5,1.7-1.9,1.7
	h-6.2c-0.9,0-1.7-0.8-1.7-1.7V295.1z"/>
<path d="M236.5,325.5c2.3,0,4.6,0.4,6.9,1c0-4.6-1.2-6.9-5-6.9c-3.5,0.1-6.9,0.5-10.3,1.3c-1.2,0.4-1.9-0.4-2.1-1.5l-0.8-4.1
	c-0.3-0.8,0.1-1.8,0.9-2.1c0.1,0,0.1-0.1,0.2-0.1c4-1.2,8.2-1.8,12.4-1.8c11.3,0,13.7,5.9,13.7,15.8v19.6c0,1-0.8,1.7-1.7,1.7l0,0
	h-2.7c-0.6,0-1.1-0.2-1.6-1.3l-1-2.4c-3,3-7.2,4.6-11.4,4.6c-6.4,0.4-11.9-4.5-12.3-10.8c0-0.5,0-1.1,0-1.6
	C222,330.5,227.3,325.5,236.5,325.5z M236.7,342c2.7-0.1,5.2-1.5,6.5-3.9v-5.3c-1.7-0.7-3.5-1.1-5.3-1.1c-4.2,0-6.4,2-6.4,5.2
	c-0.2,2.6,1.8,4.9,4.5,5.1C236.2,342,236.5,342,236.7,342z"/>
<path d="M260.9,313.9c0-1,0.8-1.7,1.7-1.7l0,0h3.1c0.7-0.1,1.3,0.4,1.5,1.1l1.3,3.4c2.9-3.5,7.2-5.4,11.7-5.3
	c11.6,0,14.5,7.8,14.5,16.6v18.8c-0.1,0.9-0.8,1.6-1.7,1.6h-6.5c-1,0-1.7-0.8-1.7-1.7l0,0v-18.8c0-4.7-1.9-7.6-6.3-7.6
	c-3.6-0.1-6.8,2.2-7.9,5.7v20.8c0,1.3-0.5,1.7-2.3,1.7h-5.8c-1,0-1.7-0.8-1.7-1.7V313.9z"/>
<path d="M313.3,346.4l24.4-52.9c0.2-0.5,0.8-0.9,1.3-0.9h0.8c0.6,0,1.1,0.3,1.3,0.9l24.2,53c0.4,0.7,0.1,1.5-0.6,1.9
	c-0.2,0.1-0.5,0.2-0.7,0.2h-6.9c-1,0.1-2-0.6-2.3-1.6l-3.8-8.5h-23.4l-3.9,8.5c-0.3,1-1.2,1.6-2.3,1.6h-6.9
	c-0.7,0.1-1.5-0.4-1.6-1.1C313,347.1,313.1,346.7,313.3,346.4z M347.3,329.7l-7.8-17.3h-0.2l-7.7,17.3H347.3z"/>
<path d="M385.7,311.3c5.3,0,10.3,2.3,13.7,6.2c0.8,0.8,0.4,1.8-0.4,2.6l-3.4,3.6c-0.8,0.9-1.6,0.4-2.4-0.2c-1.9-2-4.5-3.2-7.2-3.2
	c-5.3,0-9.6,4.2-9.6,9.4c0,0.2,0,0.4,0,0.5c-0.3,5.2,3.7,9.7,8.9,10.1c0.2,0,0.4,0,0.6,0c3.1,0,5.9-1.5,7.7-4
	c0.6-0.6,1.6-0.7,2.3-0.2l3.4,3c0.9,0.8,1.3,1.7,0.6,2.6c-3.1,4.9-8.6,7.9-14.4,7.6c-10.5,0.4-19.4-7.7-19.8-18.2
	c-0.4-10.5,7.7-19.4,18.2-19.8c0.5,0,1.1,0,1.6,0L385.7,311.3z"/>
<path d="M419.4,325.5c2.3,0,4.6,0.4,6.9,1c0-4.6-1.2-6.9-5-6.9c-3.5,0.1-6.9,0.5-10.3,1.3c-1.2,0.4-1.9-0.4-2-1.5l-0.8-4.1
	c-0.3-0.8,0.1-1.8,0.9-2.1c0.1,0,0.1-0.1,0.2-0.1c4-1.2,8.2-1.8,12.4-1.8c11.3,0,13.7,5.9,13.7,15.8v19.6c0,1-0.8,1.7-1.7,1.7H431
	c-0.7,0-1.1-0.2-1.6-1.3l-1-2.4c-3,3-7.2,4.6-11.4,4.6c-6.4,0.4-11.9-4.5-12.3-10.8c0-0.5,0-1.1,0-1.6
	C404.9,330.5,410.2,325.5,419.4,325.5z M419.6,342c2.7-0.1,5.2-1.5,6.5-3.9v-5.3c-1.7-0.7-3.5-1.1-5.3-1.1c-4.2,0-6.4,2-6.4,5.2
	c-0.2,2.6,1.8,4.9,4.4,5.1C419,342,419.3,342,419.6,342z"/>
<path d="M459.8,311.3c3,0,5.9,0.5,8.7,1.5v-17.7c0.1-0.9,0.8-1.6,1.7-1.7h6.4c0.9,0,1.7,0.8,1.7,1.7v51.6c0,1-0.8,1.7-1.7,1.7h-2.9
	c-0.9,0-1.4-0.7-1.7-1.7l-1-2.8c-3,3.5-7.3,5.5-11.9,5.4c-9.9,0-17.4-8-17.4-19.1c-0.6-9.8,6.9-18.3,16.7-18.9
	C458.9,311.3,459.3,311.3,459.8,311.3z M468.5,322.4c-2.3-1.4-4.9-2.1-7.6-2.1c-5.1,0.1-9.1,4.2-9.1,9.3c0,0.2,0,0.5,0,0.7
	c0,5.1,2.9,10.1,8.6,10.1c3.5,0.2,6.7-1.9,8-5L468.5,322.4z"/>
<path d="M503,311.3c9-0.2,16.5,6.9,16.7,15.9c0,0.3,0,0.6,0,1c0,0.5,0,1.8-0.2,2.4c-0.1,0.9-0.8,1.6-1.7,1.6h-23.3
	c0.2,4.8,4.2,8.6,9,8.4c0,0,0,0,0,0c2.8,0.1,5.6-0.9,7.8-2.7c0.9-0.7,1.8-0.8,2.4,0l3.1,4.1c0.6,0.6,0.6,1.6,0,2.2
	c-0.1,0.1-0.1,0.1-0.2,0.2c-3.8,3.2-8.6,5-13.5,5c-10.2,0-18.4-8.2-18.4-18.4c0-0.2,0-0.4,0-0.7c-0.3-10.2,7.7-18.6,17.8-18.9
	C502.6,311.3,502.8,311.3,503,311.3z M509.8,325.7c-0.2-3.6-3.2-6.4-6.9-6.3c-3.8-0.3-7.2,2.5-7.7,6.3H509.8z"/>
<path d="M525.5,313.9c0-1,0.8-1.7,1.7-1.7h2.8c0.7-0.1,1.3,0.4,1.5,1l1.3,3.4c2.7-3.4,6.8-5.4,11.1-5.3c4.3-0.2,8.5,1.9,10.9,5.5
	c2.9-3.5,7.2-5.5,11.7-5.5c11.6,0,14.4,7.4,14.4,16.8v18.6c0,1-0.8,1.8-1.8,1.7c0,0,0,0,0,0h-6.3c-1,0-1.7-0.8-1.7-1.7v-18.9
	c0-4.7-1.7-7.6-6.3-7.6c-2.8-0.3-5.6,1.2-6.9,3.8c0,0,0,1.8,0,3.4v19.2c0,0.9-0.8,1.7-1.7,1.7h-6c-0.9,0-1.7-0.7-1.7-1.7
	c0,0,0,0,0-0.1v-18.8c0-4.7-1.3-7.6-6-7.6c-3.3,0.1-6.1,2.4-6.9,5.7v20.8c0,0.9-0.8,1.7-1.7,1.7h-6.4c-0.9,0-1.7-0.8-1.7-1.7
	L525.5,313.9z"/>
<path d="M584.7,314.5c-0.4-0.8-0.1-1.8,0.7-2.2c0.3-0.2,0.6-0.2,0.9-0.2h7.5c0.7-0.1,1.3,0.4,1.5,1l6.5,21.7h0.2l8.3-21.7
	c0.5-1,1.2-1,2.3-1h6.9c0.9-0.1,1.7,0.6,1.8,1.4c0,0.3,0,0.6-0.2,0.9l-21.4,51.6c-0.3,0.6-0.9,1.1-1.6,1.1h-7.5
	c-0.9,0.1-1.7-0.6-1.8-1.5c0-0.3,0-0.6,0.2-0.9l7.3-18.4L584.7,314.5z"/>
<path class="st0" d="M26.8,292.9c-3.3,2.1-5.4,5.7-5.7,9.6v37c0.2,3.9,2.3,7.5,5.7,9.6l33.2,18.6c3.6,1.7,7.7,1.7,11.3,0l33.2-18.6
	c3.3-2.1,5.4-5.7,5.7-9.6v-37c-0.2-3.9-2.3-7.5-5.7-9.6l-33.2-18.6c-3.6-1.7-7.7-1.7-11.3,0L26.8,292.9z"/>
<path class="st1" d="M99.8,311.8c-18.4,0-32.2,15.3-32.2,34v0.8h-3.7v-0.8c0-18.7-13.7-34-32.3-34c0,1.2,0,2.4,0,3.4
	c-0.1,14.2,8.7,26.9,21.9,31.9c3.9,1.4,8.1,2.2,12.3,2.2c4.2,0,8.4-0.7,12.4-2.2c13.2-5,22-17.8,21.9-31.9
	C100,314.1,100,313,99.8,311.8z"/>
<circle class="st1" cx="65.7" cy="303" r="10.3"/>
</svg>
